<?xml version="1.0" encoding="UTF-8" standalone="no"?>
<!-- Created with Inkscape (http://www.inkscape.org/) -->

<svg
   width="210mm"
   height="297mm"
   viewBox="0 0 210 297"
   version="1.1"
   id="svg5"
   inkscape:version="1.1.2 (b8e25be8, 2022-02-05)"
   sodipodi:docname="cakoo_logo.svg"
   xmlns:inkscape="http://www.inkscape.org/namespaces/inkscape"
   xmlns:sodipodi="http://sodipodi.sourceforge.net/DTD/sodipodi-0.dtd"
   xmlns:xlink="http://www.w3.org/1999/xlink"
   xmlns="http://www.w3.org/2000/svg"
   xmlns:svg="http://www.w3.org/2000/svg">
  <sodipodi:namedview
     id="namedview7"
     pagecolor="#ffffff"
     bordercolor="#666666"
     borderopacity="1.0"
     inkscape:pageshadow="2"
     inkscape:pageopacity="0.0"
     inkscape:pagecheckerboard="0"
     inkscape:document-units="mm"
     showgrid="false"
     inkscape:snap-nodes="true"
     inkscape:snap-others="true"
     inkscape:zoom="0.69796042"
     inkscape:cx="467.79157"
     inkscape:cy="500.02835"
     inkscape:window-width="1312"
     inkscape:window-height="776"
     inkscape:window-x="0"
     inkscape:window-y="25"
     inkscape:window-maximized="0"
     inkscape:current-layer="layer1" />
  <defs
     id="defs2">
    <linearGradient
       inkscape:collect="always"
       id="linearGradient12727">
      <stop
         style="stop-color:#f9cc33;stop-opacity:1;"
         offset="0"
         id="stop12723" />
      <stop
         style="stop-color:#f9cc33;stop-opacity:0;"
         offset="1"
         id="stop12725" />
    </linearGradient>
    <linearGradient
       inkscape:collect="always"
       xlink:href="#linearGradient12727"
       id="linearGradient12729"
       x1="86.430401"
       y1="53.206113"
       x2="95.149257"
       y2="53.206113"
       gradientUnits="userSpaceOnUse" />
  </defs>
  <g
     inkscape:label="Layer 1"
     inkscape:groupmode="layer"
     id="layer1">
    <path
       style="fill:none;stroke:#000000;stroke-width:1.60237;stroke-linecap:butt;stroke-linejoin:round;stroke-miterlimit:4;stroke-dasharray:none;stroke-opacity:1"
       d="m 158.83482,142.91342 -87.146233,-16.9021 -9.187389,21.80776 -10.188059,21.63 z"
       id="path108"
       sodipodi:nodetypes="ccccc" />
    <path
       style="fill:none;stroke:#000000;stroke-width:1.85208;stroke-linecap:butt;stroke-linejoin:round;stroke-miterlimit:4;stroke-dasharray:none;stroke-opacity:1"
       d="m 52.313139,169.44908 4.169886,26.53565 101.399375,-27.5914 v 0 l 0.95242,-25.47991 z"
       id="path2661"
       sodipodi:nodetypes="cccccc" />
    <path
       style="fill:url(#linearGradient12729);fill-opacity:1;stroke:none;stroke-width:0.728133;stroke-linecap:round;stroke-linejoin:round;stroke-miterlimit:4;stroke-dasharray:none;stroke-opacity:1"
       d="m 86.430401,36.770829 c 0,0 3.032646,19.712196 1.516324,21.986681 -1.516324,2.274484 -0.75816,8.718857 1.137243,10.614261 1.895404,1.895403 6.065289,-6.823454 6.065289,-6.823454 C 94.012015,49.401409 90.221208,42.962481 86.430401,36.770829 Z"
       id="path2780"
       sodipodi:nodetypes="csscc" />
    <text
       xml:space="preserve"
       style="font-style:normal;font-weight:normal;font-size:39.1282px;line-height:1.25;font-family:sans-serif;fill:#000000;fill-opacity:1;stroke:none;stroke-width:0.978206"
       x="45.768253"
       y="113.19693"
       id="text4588"
       transform="scale(0.93973145,1.0641338)"><tspan
         sodipodi:role="line"
         id="tspan4586"
         style="stroke-width:0.978206"
         x="45.768253"
         y="113.19693">ca</tspan></text>
    <text
       xml:space="preserve"
       style="font-style:normal;font-weight:normal;font-size:39.1282px;line-height:1.25;font-family:sans-serif;fill:#000000;fill-opacity:1;stroke:none;stroke-width:0.978206"
       x="117.09917"
       y="110.37778"
       id="text4588-1"
       transform="scale(0.93973145,1.0641338)"><tspan
         sodipodi:role="line"
         id="tspan4586-8"
         style="stroke-width:0.978206"
         x="117.09917"
         y="110.37778">oo</tspan></text>
    <text
       xml:space="preserve"
       style="font-style:normal;font-weight:normal;font-size:73.0092px;line-height:1.25;font-family:sans-serif;fill:#000000;fill-opacity:1;stroke:none;stroke-width:1.82523"
       x="104.69936"
       y="113.6468"
       id="text4588-1-6"
       transform="scale(0.78903277,1.2673745)"><tspan
         sodipodi:role="line"
         id="tspan4586-8-3"
         style="stroke-width:1.82523"
         x="104.69936"
         y="113.6468">k</tspan></text>
    <ellipse
       style="opacity:0.96;stroke-width:1.85208;stroke-linecap:round;stroke-linejoin:round;stroke-miterlimit:4;stroke-dasharray:none"
       id="path8386"
       cx="121.68491"
       cy="112.39743"
       rx="4.169888"
       ry="3.2221861" />
    <ellipse
       style="opacity:0.96;stroke-width:1.96443;stroke-linecap:round;stroke-linejoin:round;stroke-miterlimit:4;stroke-dasharray:none"
       id="path8388"
       cx="144.05067"
       cy="112.2079"
       rx="3.7908072"
       ry="3.4117265" />
    <path
       style="opacity:0.96;stroke-width:1.85208;stroke-linecap:round;stroke-linejoin:round;stroke-miterlimit:4;stroke-dasharray:none"
       id="path8583"
       d="m 120.6788,122.00706 c 0.63012,2.4651 2.24609,4.59539 4.3437,6.02114 0.54265,0.36884 1.14289,0.64486 1.71433,0.96729 2.15245,0.9186 4.43815,1.65114 6.76531,1.97648 1.34575,0.18813 1.82637,0.12522 3.19453,0.10214 1.5591,-0.0941 2.98667,-0.5635 4.32328,-1.36115 3.55233,-2.11992 3.93389,-2.034 5.96312,-4.53103 0.86987,-1.22263 1.67811,-2.54733 1.7745,-4.07533 8e-4,-0.82546 -0.36082,-1.55817 -0.72334,-2.27602 -0.36722,-0.51436 -0.8627,-0.95347 -1.46114,-1.17047 -0.0619,-0.009 -0.12379,-0.0179 -0.18568,-0.0268 0,0 -3.189,2.35479 -3.189,2.35479 v 0 c 0.0464,-0.0173 0.0929,-0.0346 0.13936,-0.052 0.51432,-0.065 0.9936,0.48333 1.28271,0.845 0.34759,0.65236 0.68346,1.30329 0.64863,2.06986 -0.12816,1.4178 -0.90504,2.66187 -1.72215,3.79146 -0.25815,0.30377 -0.4992,0.62292 -0.77443,0.91129 -0.29448,0.30854 -1.35481,0.933 -0.93203,0.87668 0.75534,-0.10063 1.33243,-0.75078 2.04348,-1.02475 0.45662,-0.17593 -0.83102,0.52166 -1.27451,0.72846 -1.30038,0.60639 -1.55594,0.55093 -2.97026,0.79193 -1.26173,0.0358 -1.89401,0.10107 -3.14357,-0.0462 -2.31955,-0.27345 -4.6104,-0.9568 -6.76391,-1.83543 -0.557,-0.30743 -1.14222,-0.56855 -1.67102,-0.9223 -2.00083,-1.3385 -3.69538,-3.44192 -3.85339,-5.9129 0,0 -3.52852,1.79787 -3.52852,1.79787 z" />
    <path
       style="opacity:0.96;stroke-width:1.85208;stroke-linecap:round;stroke-linejoin:round;stroke-miterlimit:4;stroke-dasharray:none"
       id="path8593"
       d="m 145.63477,96.0235 c 1.83536,1.34324 3.93192,0.601218 5.7916,-0.275542 0,0 2.94977,-2.360096 2.94977,-2.360096 v 0 c -1.63691,0.870108 -3.7129,1.89204 -5.39085,0.582437 0,0 -3.35052,2.053201 -3.35052,2.053201 z" />
    <path
       style="opacity:0.96;stroke-width:1.85208;stroke-linecap:round;stroke-linejoin:round;stroke-miterlimit:4;stroke-dasharray:none"
       id="path8595"
       d="m 149.77961,100.14513 c 0.33233,-0.0533 0.66466,-0.10656 0.99699,-0.159846 0,0 3.02311,-2.293512 3.02311,-2.293512 v 0 c -0.27784,0.07487 -0.55567,0.149736 -0.8335,0.224605 0,0 -3.1866,2.228753 -3.1866,2.228753 z" />
    <circle
       id="path10742"
       style="fill:#800000;stroke:#000000;stroke-width:0.264583"
       cx="58.757507"
       cy="115.61961"
       r="0.35345227" />
    <circle
       id="path10744"
       style="fill:#800000;stroke:#000000;stroke-width:0.264583"
       cx="58.757507"
       cy="115.61961"
       r="0.35345227" />
    <circle
       id="path11096"
       style="fill:#000000;stroke:#000000;stroke-width:0.264583"
       cx="147.4624"
       cy="119.41042"
       r="0.35345227" />
    <circle
       id="path11098"
       style="fill:#000000;stroke:#000000;stroke-width:0.264583"
       cx="147.4624"
       cy="119.41042"
       r="0.35345227" />
    <circle
       id="path11100"
       style="fill:#000000;stroke:#000000;stroke-width:0.264583"
       cx="148.59964"
       cy="119.41042"
       r="0.35345227" />
    <path
       style="opacity:0.96;fill:#000000;stroke-width:1.85208;stroke-linecap:round;stroke-linejoin:round;stroke-miterlimit:4;stroke-dasharray:none"
       id="path11108"
       d="m 145.74295,120.58706 c 1.03351,0.23414 1.69955,0.8709 1.86409,1.92645 -0.0785,0.82615 -0.89088,1.21662 -1.38536,1.79964 -0.0245,0.0461 -0.0944,0.0905 -0.0735,0.13837 0.11488,0.26356 0.27241,0.5004 0.56213,0.33637 2.62282,-1.485 3.27331,-1.09583 3.95797,-2.92353 0.29526,-1.12961 -0.23461,-2.02626 -0.97565,-2.82925 -1.23104,-1.15024 0.18043,-0.90233 -3.58721,1.72674 -0.0632,0.0441 0.15674,-0.017 0.23126,0.003 0.0963,0.0255 0.17941,0.0866 0.26912,0.12985 0.80622,0.56474 1.11211,1.16539 0.90308,2.13326 -0.46636,0.69383 -1.10008,1.51428 -1.81417,1.97383 -0.0317,0.0154 -0.11885,0.0203 -0.095,0.0463 0.14623,0.15935 0.3085,0.48733 0.50794,0.40368 2.00013,-0.83885 3.60667,-1.78329 4.87268,-3.4002 0.54036,-0.8888 0.36035,-1.74171 -0.30451,-2.48119 0.22399,-0.2112 -0.54306,-0.16331 -0.45463,-0.32791 0.0351,-0.0654 0.24919,0.0743 0.18899,0.1177 -0.98606,0.7107 -2.08987,1.24809 -3.0739,1.9616 -0.11096,0.0804 0.27315,-0.0365 0.41006,-0.0301 0.16075,0.008 0.3183,0.0477 0.47745,0.0715 0.9337,0.35104 1.32937,0.80691 0.95345,1.76808 -0.45665,0.82257 -1.36196,1.25717 -2.14492,1.72282 -0.10603,0.061 -0.42394,0.24439 -0.31807,0.1831 7.63427,-4.42009 0.39955,-0.26382 -0.32138,0.30531 -0.12458,0.0984 0.15162,0.29711 0.28699,0.37999 0.18893,0.11566 0.66335,-0.12885 0.77742,-0.17295 2.00224,-1.10817 4.46545,-1.89772 5.31827,-4.17288 0.19238,-1.00093 -0.33563,-1.75834 -1.04652,-2.3945 -0.53808,-0.42845 -1.15958,-0.62654 -1.83028,-0.71359 -0.0779,-0.007 -0.1559,-0.0139 -0.23385,-0.0208 0,0 -3.20706,2.30395 -3.20706,2.30395 v 0 c 0.0771,0.001 0.15411,0.003 0.23117,0.004 0.61677,0.0324 1.20451,0.13548 1.72556,0.49445 0.62604,0.50263 1.08085,1.12381 0.81295,1.95998 -0.15641,0.33193 -0.18422,0.43542 -0.41288,0.73358 -0.88256,1.15075 -3.92533,2.52808 1.69532,-0.62389 -0.0564,0.0322 -0.55278,0.30669 -0.55896,0.33748 -0.023,0.1147 0.19459,0.26898 0.0992,0.33664 -1.03181,0.73154 -4.40115,2.49237 -3.27558,1.9154 1.13015,-0.57931 2.63099,-1.49346 3.89846,-2.263 0.82108,-0.51398 1.6946,-1.02834 2.03606,-1.99057 0.25122,-1.18324 -0.23098,-1.79889 -1.29176,-2.31416 -0.0458,-0.0121 -0.8538,-0.2452 -0.94798,-0.19887 -1.29346,0.63623 -4.32944,1.22157 -3.56696,2.44487 0.0843,0.13525 0.34959,0.0768 0.41895,0.23036 0.66282,0.62812 0.60394,1.21405 0.0918,1.94929 -0.33375,0.37637 -0.39996,0.48087 -0.79544,0.80375 -0.14337,0.11704 -0.61131,0.41559 -0.44897,0.32671 1.01559,-0.55602 1.92046,-1.34392 3.01204,-1.72995 1.01584,-0.35925 -0.11638,0.89164 0.16987,0.56822 0.65878,-0.6451 1.36354,-1.33818 1.65957,-2.22711 0.0989,-1.04534 -0.26184,-1.89043 -1.10584,-2.53851 -8e-5,-5e-5 -0.50958,-0.41967 -0.60268,-0.37038 -2.99645,1.58669 -4.52033,1.39151 -2.94186,2.67104 0.69137,0.67216 1.14229,1.43663 0.75765,2.41162 -0.0709,0.12335 -0.12792,0.25581 -0.21271,0.37007 -0.0697,0.0939 -0.35034,0.30423 -0.24699,0.24938 1.06246,-0.56388 2.09138,-1.18883 3.13707,-1.78324 -0.0444,0.0538 -0.13225,0.0918 -0.13322,0.16157 -0.008,0.56498 0.0705,0.43854 0.1925,0.30717 0.59661,-0.6115 1.27949,-1.16265 1.18204,-2.10976 -0.27827,-1.12764 -0.96423,-1.94527 -2.06834,-2.35327 0,0 -3.22486,2.26258 -3.22486,2.26258 z" />
    <path
       style="opacity:0.96;fill:#f9cc33;stroke-width:1.85208;stroke-linecap:round;stroke-linejoin:round;stroke-miterlimit:4;stroke-dasharray:none;fill-opacity:1"
       id="path11256"
       d="m 149.42606,98.972088 c 1.06121,0.298953 2.13309,0.05254 3.19505,-0.08315 0.0457,-0.0011 0.14609,0.04138 0.13702,-0.0034 -0.045,-0.222155 -0.49729,-0.102447 -0.41808,-0.154575 4.14184,-2.725518 3.91905,-1.949963 2.32383,-1.629542 -1.44418,0.335896 -1.36249,0.29601 -3.67713,2.066578 -0.13463,0.102987 0.1851,0.284028 0.27765,0.426043 0,0 3.23077,-2.340504 3.23077,-2.340504 v 0 c 0.0607,0.141576 0.30589,0.33325 0.18198,0.424725 -1.20512,0.889614 -4.61257,2.513317 -3.13484,1.806607 2.29128,-0.651376 -1.02147,1.16148 4.46871,-2.204186 0.24321,-0.149095 0.1204,-0.517551 -0.009,-0.66298 -0.0546,-0.06153 -0.1573,-0.04815 -0.23595,-0.07222 -1.01786,0.116428 -2.07077,0.534903 -3.08152,0.178753 0,0 -3.25888,2.247844 -3.25888,2.247844 z" />
    <path
       style="fill:#f9cc33;fill-opacity:1;stroke:none;stroke-width:0.264583px;stroke-linecap:butt;stroke-linejoin:miter;stroke-opacity:1"
       d="M 54.587621,178.92609 158.45573,151.2532 157.31849,159.2139 56.103945,185.74955 Z"
       id="path12402"
       sodipodi:nodetypes="ccccc" />
  </g>
</svg>
